<svg width="41" height="69" viewBox="0 0 41 69" fill="none" xmlns="http://www.w3.org/2000/svg">
<path d="M28.0135 37.2599H16.4535C13.9595 37.2599 11.9375 35.7639 11.9375 33.9199V17.3869C11.9375 15.5419 13.9595 14.0469 16.4535 14.0469H28.0135C30.5075 14.0469 32.5295 15.5429 32.5295 17.3869V33.9199C32.5295 35.7649 30.5075 37.2599 28.0135 37.2599Z" fill="#ACB0B7"/>
<path d="M30.0744 38.3711L22.3164 41.3001L27.2144 54.2761L24.8354 63.7471C24.2834 65.9461 25.6184 68.1761 27.8164 68.7281L27.8974 68.7481C30.0964 69.3001 32.3264 67.9651 32.8784 65.7671L35.1904 56.5651C35.6454 54.7501 35.5364 52.8391 34.8754 51.0881L30.0744 38.3711Z" fill="#C0D0E2"/>
<path d="M21.472 38.3911L13.297 38.3711V52.1401L7.66202 60.2951C6.37302 62.1601 6.84002 64.7161 8.70502 66.0051L8.77302 66.0521C10.638 67.3411 13.195 66.8731 14.483 65.0081L19.906 57.1591C20.95 55.6481 21.508 53.8531 21.503 52.0161L21.472 38.3911Z" fill="#D7E5F2"/>
<path d="M31.2094 20.0938L26.6094 24.6937L34.1954 32.2787V39.7858C34.1954 41.5638 35.6364 43.0058 37.4154 43.0058H37.4804C39.2584 43.0058 40.7004 41.5638 40.7004 39.7858V31.7298C40.7004 30.3568 40.1544 29.0387 39.1834 28.0677L31.2094 20.0938Z" fill="#C0D0E2"/>
<path d="M3.221 13.1758H3.286C5.064 13.1758 6.506 14.6168 6.506 16.3958V26.5978H3.356C1.502 26.5978 0 25.0958 0 23.2418V16.3958C0 14.6178 1.442 13.1758 3.221 13.1758Z" fill="#D7E5F2"/>
<path d="M0 23.2428V20.0938H13.421V26.5987H3.356C1.503 26.5987 0 25.0958 0 23.2428Z" fill="#D7E5F2"/>
<path d="M17.8276 8.80266C17.2276 8.80266 16.6276 8.80266 16.0276 8.80266C15.8616 7.33166 16.2786 5.69366 17.2786 4.22266C17.8786 4.22266 18.4786 4.22266 19.0786 4.22266C18.0786 5.69366 17.6616 7.33166 17.8276 8.80266Z" fill="white"/>
<path d="M21.9456 18.525C17.3486 18.503 13.6296 14.772 13.6296 10.17V10.102V9.166V9.09799C13.6296 4.49599 17.3496 0.765996 21.9456 0.742996V0H21.8516C16.7186 0 12.5586 4.161 12.5586 9.293V14.615C12.5586 16.866 13.6586 18.856 15.3446 20.092H21.9456V18.525Z" fill="#D7E5F2"/>
<path d="M31.3323 14.617V9.29495C31.3323 4.16195 27.1713 0.00195312 22.0393 0.00195312H21.9453V0.744965C21.9593 0.744965 21.9723 0.742966 21.9863 0.742966H22.1553C26.7703 0.742966 30.5113 4.48496 30.5113 9.09996V9.16795V10.104V10.172C30.5113 14.788 26.7703 18.529 22.1553 18.529H21.9863C21.9723 18.529 21.9593 18.527 21.9453 18.527V20.094H28.5463C30.2323 18.858 31.3323 16.868 31.3323 14.617Z" fill="#C0D0E2"/>
<path d="M13.6289 9.09914V9.16713C13.6289 5.14713 17.2439 11.9461 21.8409 11.9271L21.9449 0.744141C17.3489 0.766141 13.6289 4.49714 13.6289 9.09914Z" fill="white"/>
<path d="M21.3418 4.58403H21.1728C21.1588 4.58403 21.1458 4.58203 21.1328 4.58203L21.9438 18.524C21.9578 18.524 21.9708 18.526 21.9848 18.526H22.1538C26.7688 18.526 30.5098 14.785 30.5098 10.169V10.101C30.5098 14.133 25.9578 4.58403 21.3418 4.58403Z" fill="#D7E5F2"/>
<path d="M21.8798 11.9232H22.0488C26.6638 11.9232 30.5098 5.13424 30.5098 9.16524V9.09723C30.5098 4.48223 26.7688 0.740234 22.1538 0.740234H21.9848C21.9708 0.740234 21.9578 0.742233 21.9438 0.742233L21.8398 11.9252C21.8528 11.9252 21.8658 11.9232 21.8798 11.9232Z" fill="#D7E5F2"/>
<path d="M13.6289 10.103V10.171C13.6289 14.773 17.3489 18.504 21.9449 18.526L21.1339 4.58402C16.5379 4.56402 13.6289 14.122 13.6289 10.103Z" fill="white"/>
<path d="M21.9449 15.9801V3.28711C17.3479 3.30311 13.6289 5.96611 13.6289 9.25111V10.0161C13.6289 13.3011 17.3489 15.9641 21.9449 15.9801Z" fill="#16274C"/>
<path d="M14.6945 10.0761C14.5075 10.0761 14.3555 9.92414 14.3555 9.73714C14.3555 6.31814 16.8885 4.26414 21.1315 4.24414H21.1335C21.3205 4.24414 21.4715 4.39413 21.4725 4.58113C21.4735 4.76813 21.3225 4.92014 21.1355 4.92114C19.3015 4.93014 15.0335 5.41613 15.0335 9.73613C15.0335 9.92413 14.8815 10.0761 14.6945 10.0761Z" fill="white"/>
<path d="M22.1553 3.28711H21.9863C21.9723 3.28711 21.9593 3.2881 21.9453 3.2881V15.9811C21.9593 15.9811 21.9723 15.9821 21.9863 15.9821H22.1553C26.7703 15.9821 30.5113 13.3111 30.5113 10.0171V9.25211C30.5113 5.95811 26.7703 3.28711 22.1553 3.28711Z" fill="#203456"/>
<path d="M18.8578 38.6548C17.5998 38.6548 16.5798 37.9498 16.5798 37.0818V28.1708C16.5798 27.3018 17.5998 26.5977 18.8578 26.5977H21.9468V21.4098H19.3528C17.8518 21.4098 16.4698 20.9178 15.3458 20.0938H13.3008V41.5018H21.9468V38.6568H18.8578V38.6548Z" fill="#D7E5F2"/>
<path d="M21.9453 21.4098V26.5978H25.7753C27.0333 26.5978 28.0533 27.3028 28.0533 28.1708V37.0818C28.0533 37.9508 27.0333 38.6548 25.7753 38.6548H21.9453V41.4998H31.3323V20.0918H28.5463C27.4223 20.9158 26.0403 21.4078 24.5393 21.4078H21.9453V21.4098Z" fill="#C0D0E2"/>
<path d="M21.9448 21.4097V20.0938H15.3438C16.4688 20.9178 17.8507 21.4097 19.3507 21.4097H21.9448Z" fill="#D7E5F2"/>
<path d="M21.9453 21.4097H24.5393C26.0393 21.4097 27.4223 20.9178 28.5463 20.0938H21.9453V21.4097Z" fill="#C0D0E2"/>
<path d="M25.7753 38.6547C27.0333 38.6547 28.0533 37.9497 28.0533 37.0817V28.1707C28.0533 27.3017 27.0333 26.5977 25.7753 26.5977H21.9453V38.6557L25.7753 38.6547Z" fill="#D7E5F2"/>
<path d="M16.5781 28.1717V37.0827C16.5781 37.9517 17.5981 38.6557 18.8561 38.6557H21.9451V26.5977H18.8561C17.5981 26.5987 16.5781 27.3027 16.5781 28.1717Z" fill="#FCFCFC"/>
</svg>
